<svg viewBox="0 0 398 445" xmlns="http://www.w3.org/2000/svg"><g clip-path="url(#clip0)" fill="#3D3D3D"><path d="M372.507 303.586c-4.822-11.621-11.472-23.065-21.197-36.282-24.522-33.177-32.003-107.16-32.086-107.87-.333-3.548-2.66-6.476-5.736-7.54-3.159-1.065-6.567-.089-8.811 2.572-29.26 35.218-16.958 89.596-10.308 111.33 1.829 5.943 3.824 12.951 5.236 20.048 10.806 57.394-10.058 83.386-14.962 88.62-4.738 1.419-7.98.709-10.973-2.75-10.307-12.153-13.715-51.984-8.894-103.878.998-10.556.748-20.048-.665-28.919-10.168-63.784-47.45-104.698-56.941-119.047C181.069 78.354 178.409 9.25 178.326 8.63c-.083-3.283-1.829-6.21-4.572-7.63-2.66-1.419-5.902-1.241-8.396.621-43.557 31.847-39.816 108.58-33.748 151.426 1.413 9.935 4.156 20.048 8.894 32.822 16.874 45.685-3.325 104.676-3.491 105.209-.166.532-.333.975-.416 1.508-2.577 14.548-6.899 23.241-11.72 23.241-.499 0-.998-.088-1.58-.266-5.902-1.33-8.977-8.072-9.06-13.927-.333-75.668-70.906-101.128-71.654-101.394-3.159-1.064-6.65-.089-8.811 2.661-2.245 2.75-2.66 6.565-1.164 9.758.831 1.863 3.491 10.024 1.662 38.855-1.58 25.903-5.985 51.539-13.05 76.112-16.792 58.902-14.132 114.7-13.965 117.361 12.912 151.077 214.827 177.549 334.661 92.434 13.134-9.314 23.857-19.959 31.754-31.669 44.223-65.644 18.205-154.796-1.163-202.166zM65.36 447.914c.25 4.879-3.242 9.049-7.814 9.315h-.499c-4.405 0-8.063-3.637-8.312-8.339-.748-12.951-.582-26.524.332-41.249.333-4.879 4.323-8.516 8.895-8.251 4.572.355 8.063 4.613 7.73 9.492-.915 14.017-1.08 26.791-.332 39.032zm4.072-78.595c-.499 4.524-4.073 7.806-8.23 7.806-.332 0-.664 0-1.08-.089-4.489-.621-7.73-4.967-7.232-9.846l3.99-34.242c.582-4.79 4.655-8.25 9.31-7.718 4.572.621 7.814 5.057 7.232 9.936l-3.99 34.153zM316.269 121.362c-4.533-.749-7.642-5.271-6.944-10.109.519-3.604 3.523-22.056 11.673-31.334 3.137-3.577 8.39-3.763 11.751-.402 3.348 3.348 3.518 8.962.377 12.54-3.45 3.928-6.389 15.172-7.371 21.9-.701 4.787-4.885 8.146-9.486 7.405zM13.228 165.55c-1.59-6.598-5.544-17.478-9.339-21.03-3.454-3.231-3.799-8.836-.771-12.517 3.02-3.691 8.267-4.068 11.73-.824 8.957 8.382 13.637 26.431 14.486 29.961 1.136 4.743-1.542 9.568-5.983 10.789-4.538 1.218-8.991-1.715-10.123-6.379z"/></g><defs><clipPath id="clip0"><path fill="#fff" d="M0 0h399v445H0z"/></clipPath></defs></svg>