<svg width="23" height="31" fill="none" xmlns="http://www.w3.org/2000/svg"><g clip-path="url(#clip0)" fill="#FF6B09"><path d="M21.464 16.215c-.271-.587-.646-1.166-1.194-1.834-1.382-1.678-1.804-5.418-1.808-5.454a.455.455 0 00-.324-.381.486.486 0 00-.496.13c-1.65 1.78-.956 4.53-.581 5.629.103.3.215.654.295 1.013.609 2.902-.567 4.216-.843 4.48-.267.072-.45.036-.619-.138-.58-.615-.773-2.629-.5-5.252a5.182 5.182 0 00-.038-1.462c-.573-3.225-2.674-5.294-3.21-6.019-1.47-2.099-1.62-5.593-1.625-5.624a.438.438 0 00-.257-.386.482.482 0 00-.473.032c-2.455 1.61-2.244 5.49-1.902 7.655.08.503.234 1.014.5 1.66.952 2.31-.186 5.292-.196 5.319-.01.027-.019.05-.023.076-.145.736-.39 1.175-.66 1.175a.33.33 0 01-.09-.013c-.332-.068-.506-.409-.51-.705-.02-3.825-3.996-5.112-4.038-5.126a.477.477 0 00-.497.135.43.43 0 00-.066.493c.047.094.197.507.094 1.964a16.233 16.233 0 01-.735 3.848C.72 20.41.87 23.23.88 23.364c.727 7.638 12.106 8.976 18.86 4.673.74-.47 1.344-1.009 1.789-1.6 2.492-3.32 1.026-7.827-.066-10.222zM4.155 23.512a.454.454 0 01-.44.47h-.028a.46.46 0 01-.469-.42c-.042-.655-.032-1.342.019-2.086a.468.468 0 01.501-.417.458.458 0 01.436.48 13.98 13.98 0 00-.019 1.973zm.23-3.974a.46.46 0 01-.464.395c-.019 0-.038 0-.061-.004a.456.456 0 01-.408-.498l.225-1.731a.47.47 0 01.525-.39c.258.03.44.255.408.502l-.225 1.726zM18.295 7.002a.451.451 0 01-.391-.51c.029-.183.198-1.116.658-1.585a.483.483 0 01.662-.02c.189.169.198.453.021.634-.194.198-.36.767-.415 1.107a.466.466 0 01-.535.374zM1.217 9.236c-.09-.333-.312-.883-.526-1.063a.435.435 0 01-.043-.633.482.482 0 01.66-.041c.505.424.77 1.336.817 1.515a.447.447 0 01-.337.545.471.471 0 01-.57-.322z"/></g><defs><clipPath id="clip0"><path fill="#fff" transform="translate(.472 .867)" d="M0 0h22.485v29.6H0z"/></clipPath></defs></svg>